<?xml version="1.0" encoding="utf-8"?>
<!-- Generator: Adobe Illustrator 21.1.0, SVG Export Plug-In . SVG Version: 6.00 Build 0)  -->
<svg version="1.1" id="Слой_1" xmlns="http://www.w3.org/2000/svg" xmlns:xlink="http://www.w3.org/1999/xlink" x="0px" y="0px"
	 viewBox="0 0 1800 1800" style="enable-background:new 0 0 1800 1800;" xml:space="preserve">
<style type="text/css">
	.st0{fill:#1DC100;}
	.st1{fill:#15FF00;}
</style>
<rect x="720" y="1332" class="st0" width="648" height="90"/>
<rect x="648" y="1440" class="st0" width="792" height="72"/>
<rect x="1080" y="360" class="st1" width="144" height="90"/>
<rect x="648" y="684" class="st0" width="216" height="90"/>
<rect x="864" y="468" class="st0" width="216" height="90"/>
<rect x="432" y="576" class="st0" width="216" height="90"/>
<rect x="1080" y="1224" class="st1" width="144" height="90"/>
<rect x="648" y="504" class="st0" width="216" height="54"/>
<rect x="864" y="792" class="st0" width="216" height="72"/>
<rect x="1080" y="468" class="st1" width="144" height="90"/>
<rect x="648" y="576" class="st0" width="216" height="90"/>
<rect x="864" y="576" class="st0" width="216" height="90"/>
<rect x="1080" y="576" class="st1" width="144" height="90"/>
<rect x="1080" y="684" class="st1" width="144" height="90"/>
<rect x="1080" y="792" class="st1" width="144" height="90"/>
<rect x="1080" y="900" class="st1" width="144" height="90"/>
<rect x="1080" y="1008" class="st1" width="144" height="90"/>
<rect x="1080" y="1116" class="st1" width="144" height="90"/>
<rect x="864" y="684" class="st0" width="216" height="90"/>
</svg>
