<svg xmlns="http://www.w3.org/2000/svg" id="Слой_1" x="0" y="0" version="1.1" viewBox="0 0 1800 1800" xml:space="preserve"><style>.st0{fill:#1dc100}.st1{fill:#15ff00}.st2{fill:#129100}</style><path d="M720 1332h648v90H720zM648 1440h792v72H648z" class="st0"/><path d="M1080 360h144v90h-144z" class="st1"/><path d="M648 684h216v90H648z" class="st2"/><path d="M864 468h216v90H864z" class="st0"/><path fill="#0b7000" d="M432 576h216v90H432z"/><path d="M1080 1224h144v90h-144z" class="st1"/><path d="M648 504h216v54H648z" class="st2"/><path d="M864 792h216v72H864z" class="st0"/><path d="M1080 468h144v90h-144z" class="st1"/><path d="M648 576h216v90H648z" class="st2"/><path d="M864 576h216v90H864z" class="st0"/><path d="M1080 576h144v90h-144zM1080 684h144v90h-144zM1080 792h144v90h-144zM1080 900h144v90h-144zM1080 1008h144v90h-144zM1080 1116h144v90h-144z" class="st1"/><path d="M864 684h216v90H864z" class="st0"/></svg>