<svg version="1.1" id="Слой_1" xmlns="http://www.w3.org/2000/svg" x="0" y="0" viewBox="0 0 1800 1800" xml:space="preserve"><style>.st0{fill:#1dc100}.st1{fill:#15ff00}</style><path class="st0" d="M720 1332h648v90H720zM648 1440h792v72H648z"/><path class="st1" d="M1080 360h144v90h-144z"/><path class="st0" d="M648 684h432v90H648zM864 468h216v90H864zM432 576h648v90H432z"/><path class="st1" d="M1080 1224h144v90h-144z"/><path class="st0" d="M648 504h432v54H648zM864 792h216v72H864z"/><path class="st1" d="M1080 468h144v90h-144z"/><path class="st0" d="M648 576h216v90H648zM864 576h216v90H864z"/><path class="st1" d="M1080 576h144v90h-144zM1080 684h144v90h-144zM1080 792h144v90h-144zM1080 900h144v90h-144zM1080 1008h144v90h-144zM1080 1116h144v90h-144z"/><path class="st0" d="M864 684h216v90H864z"/></svg>