<?xml version="1.0" encoding="utf-8"?>
<!-- Generator: Adobe Illustrator 21.1.0, SVG Export Plug-In . SVG Version: 6.00 Build 0)  -->
<svg version="1.1" id="Слой_1" xmlns="http://www.w3.org/2000/svg" xmlns:xlink="http://www.w3.org/1999/xlink" x="0px" y="0px"
	 viewBox="0 0 1800 1800" style="enable-background:new 0 0 1800 1800;" xml:space="preserve">
<style type="text/css">
	.st0{fill:#15FF00;}
	.st1{fill:#1DC100;}
</style>
<path class="st0" d="M720,1332h648v90H720V1332z M648,1440h792v72H648V1440z"/>
<path class="st1" d="M1080,360h144v90h-144V360z"/>
<path class="st0" d="M648,684h432v90H648V684z M864,468h216v90H864V468z M432,576h648v90H432V576z"/>
<path class="st1" d="M1080,1224h144v90h-144V1224z"/>
<path class="st0" d="M648,504h432v54H648V504z M864,792h216v72H864V792z"/>
<path class="st1" d="M1080,468h144v90h-144V468z"/>
<path class="st0" d="M648,576h216v90H648V576z M864,576h216v90H864V576z"/>
<path class="st1" d="M1080,576h144v90h-144V576z M1080,684h144v90h-144V684z M1080,792h144v90h-144V792z M1080,900h144v90h-144V900z
	 M1080,1008h144v90h-144V1008z M1080,1116h144v90h-144V1116z"/>
<path class="st0" d="M864,684h216v90H864V684z"/>
</svg>
