<svg 
  aria-hidden="true" 
  data-prefix="fab" 
  data-icon="angular" 
  class="svg__gear" 
  xmlns="http://www.w3.org/2000/svg" 
  viewBox="-280 -280 1536 1536"
>
<path 
  fill="green" 
  stroke="green" 
  stroke-width="24" 
d="M937.4 408.2c-23.7 13.6-45.7 26.2-67.7 38.8-10.7 6.1-21.7 11.9-32 18.7-3 2-5.8 6.8-5.9 10.4-.6 15.5.1 31-.4 46.4-.2 6.1 1.7 9.4 7 12.4 29.3 16.4 58.3 33.1 87.4 49.8 3.3 1.9 6.5 4 11.7 7.3-9.1 25.8-18 51.6-27.6 77.2-1 2.7-6.2 5.7-9.2 5.4-32.8-2.7-65.6-5.7-98.2-9.5-10.8-1.2-18.2-.4-24.3 10.4-6.2 11.3-15.2 21.1-23.6 31.1-4 4.9-4.9 8.6-2.1 14.8 15.3 33.2 30 66.6 45.9 102.4-23.5 15.9-47 32.1-70.8 47.7-2 1.3-7.3-.1-9.6-2-26.5-22.3-52.7-44.8-78.8-67.6-4.8-4.2-8.5-5.3-14.9-2.9-14.2 5.3-28.7 9.7-43.4 13.5-6.8 1.8-9.6 4.9-11.1 11.7-7.7 35.3-15.9 70.4-24.3 107.1H454c-8.3-36.3-16.6-71.4-24.1-106.7-1.6-7.4-4.9-10.3-11.9-12.1-14.3-3.8-28.5-8.1-42.3-13.4-6.3-2.4-10-1.7-15 2.6-26 22.8-52.3 45.3-78.8 67.6-2.5 2.1-8.3 3.5-10.4 2.1-23.6-15.4-46.7-31.5-70.2-47.5 15.6-34.7 30-67.4 45-99.9 3.6-7.8 2.8-12.9-2.8-19.4-9-10.3-17.1-21.5-24.6-33-3.9-5.9-8-7.7-14.7-7-33.4 3.5-66.9 6.4-100.3 10-7.9.8-13 .4-15.9-8.6-8-24.6-16.8-49-25.5-73.9 4.7-3 7.8-5.2 11.1-7.1 29.1-16.7 58.2-33.4 87.4-49.8 5.7-3.2 7.8-6.6 7.5-13.2-.6-14.8-.6-29.6 0-44.3.3-6.5-1.7-10.1-7.4-13.3-29.6-16.6-58.9-33.5-88.3-50.4-2.7-1.6-5.4-3.2-10.4-6.2 9.3-26.2 18.4-52.6 28.2-78.8.8-2.2 6.1-4.3 9.1-4.1 32.8 2.8 65.6 5.7 98.2 9.6 11 1.3 18.1-.3 24-10.9 6.1-10.9 14.8-20.6 23-30.2 4.4-5.2 5.3-9.3 2.3-15.7-15.3-33.1-29.9-66.5-45.8-101.9 23.4-16 46.6-32 70.1-47.4 2.2-1.4 8-.1 10.5 2 26.5 22.3 52.8 44.8 78.8 67.6 4.9 4.3 8.7 5 14.9 2.7 14.2-5.3 28.8-9.6 43.4-13.6 6.1-1.7 9.3-4.3 10.7-10.8 7.7-35.3 15.9-70.6 24.3-107.6h91.6c8.3 36.4 16.5 71.5 24.2 106.8 1.5 6.8 4.4 9.8 11.1 11.6 14.6 3.9 29.2 8.4 43.4 13.5 5.8 2.1 9.5 1.9 14.2-2.2l78.5-67.9c4.3-3.8 7.5-5.4 12.7-1.7 22.5 15.7 45.3 31.1 68.6 47-11.2 25.1-21.6 48.4-32 71.7-4.7 10.6-9.1 21.3-14.3 31.7-2.7 5.3-1.5 8.8 1.9 13.1 9.4 11.9 18.8 23.8 27.3 36.3 3.7 5.5 7.5 7.3 13.8 6.6 33.4-3.4 66.9-6.2 100.3-10 8.7-1 13.7.2 16.6 9.1 8.1 24.5 16.8 48.9 25.4 73.9zm-291.8 95.9c2.2-77.2-61.2-143.9-138.6-145.8-83.6-2-150 58.2-152.4 138.3-2.3 76.1 61.5 142.7 138.6 144.7 82.8 2.3 150.1-58.3 152.4-137.2z"
/>
<animate 
  attributeType="CSS" 
  attributeName="fill-opacity" 
  dur="5s" 
  repeatCount="indefinite"
  values="0;1;0"
/>
<animateTransform 
  attributeName="transform"
  type="rotate"
  from="0"
  to="360"
  begin="0s"
  dur="12s"
  repeatCount="indefinite"
/>
</svg>