<svg version="1.1" id="Слой_1" xmlns="http://www.w3.org/2000/svg" x="0" y="0" viewBox="0 0 1800 1800" xml:space="preserve"><style>.st0{fill:#0f0}</style><path class="st0" d="M576 864h648v72H576zM576 792h648v72H576zM576 720h648v72H576zM648 648h504v54H648zM720 576h360v54H720zM576 936h648v72H576zM576 1008h648v72H576zM648 1080h504v72H648zM720 1152h360v72H720zM1152 576h72v72h-72zM1224 504h72v72h-72zM864 504h72v45h-72zM864 432h72v45h-72zM864 360h72v45h-72zM864 1224h72v72h-72zM864 1296h72v72h-72zM864 1368h72v72h-72zM576 1152h72v72h-72zM504 1224h72v72h-72zM1152 1152h72v72h-72zM1224 1224h72v72h-72zM1224 864h216v72h-216zM360 864h216v72H360zM576 576h72v72h-72zM504 504h72v72h-72z"/></svg>