<svg xmlns="http://www.w3.org/2000/svg" id="Слой_1" x="0" y="0" version="1.1" viewBox="0 0 1800 1800" xml:space="preserve"><style>.st0{fill:#0f0}</style><path d="M720 576h360v72H720zM648 648h504v45H648zM576 720h648v72H576zM576 792h648v45H576zM576 864h648v72H576zM576 936h648v72H576zM576 1008h648v72H576zM648 1080h504v72H648zM720 1152h360v72H720zM828 432h144v72H828zM828 504h144v45H828zM828 1224h144v72H828zM828 1296h144v72H828zM432 864h144v108H432zM1224 864h144v108h-144zM1152 576h72v72h-72zM1224 504h72v45h-72zM576 576h72v72h-72zM504 504h72v45h-72zM576 1152h72v72h-72zM504 1224h72v72h-72zM1152 1152h72v72h-72zM1224 1224h72v72h-72zM216 864h216v72H216zM1368 864h216v72h-216zM648 612h36v36h-36zM612 648h36v22.5h-36zM540 576h36v36h-36zM576 526.5h36V549h-36zM1152 648h36v22.5h-36zM1116 612h36v36h-36zM1224 576h36v36h-36zM1188 526.5h36V549h-36zM1152 1116h36v36h-36zM1116 1152h36v36h-36zM1188 1224h36v36h-36zM1224 1188h36v36h-36zM576 1224h36v36h-36zM540 1188h36v36h-36zM648 1152h36v36h-36zM612 1116h36v36h-36z" class="st0"/><path d="M1260 468h72v72h-72z" class="st0"/><path d="M1296 432h72v72h-72zM468 468h72v72h-72z" class="st0"/><path d="M432 432h72v72h-72zM468 1260h72v72h-72z" class="st0"/><path d="M432 1296h72v72h-72zM1260 1260h72v72h-72z" class="st0"/><path d="M1296 1296h72v72h-72zM864 360h72v45h-72zM864 288h72v72h-72zM864 216h72v45h-72zM864 1368h72v72h-72zM864 1440h72v72h-72zM864 1512h72v72h-72z" class="st0"/></svg>