<?xml version="1.0" encoding="utf-8"?>
<!-- Generator: Adobe Illustrator 21.1.0, SVG Export Plug-In . SVG Version: 6.00 Build 0)  -->
<svg version="1.1" id="Слой_1" xmlns="http://www.w3.org/2000/svg" xmlns:xlink="http://www.w3.org/1999/xlink" x="0px" y="0px"
	 viewBox="0 0 1800 1800" style="enable-background:new 0 0 1800 1800;" xml:space="preserve">
<style type="text/css">
	.st0{fill:#00FF00;}
</style>
<rect x="720" y="576" class="st0" width="360" height="54"/>
<rect x="648" y="648" class="st0" width="504" height="90"/>
<rect x="576" y="756" class="st0" width="648" height="36"/>
<rect x="576" y="792" class="st0" width="648" height="54"/>
<rect x="576" y="864" class="st0" width="648" height="90"/>
<rect x="576" y="972" class="st0" width="648" height="36"/>
<rect x="576" y="1008" class="st0" width="648" height="54"/>
<rect x="648" y="1080" class="st0" width="504" height="72"/>
<rect x="720" y="1152" class="st0" width="360" height="18"/>
<rect x="828" y="432" class="st0" width="144" height="90"/>
<rect x="828" y="540" class="st0" width="144" height="36"/>
<rect x="828" y="1224" class="st0" width="144" height="54"/>
<rect x="828" y="1296" class="st0" width="144" height="72"/>
<rect x="432" y="828" class="st0" width="144" height="18"/>
<rect x="1224" y="828" class="st0" width="144" height="18"/>
<rect x="1152" y="576" class="st0" width="72" height="54"/>
<rect x="1224" y="504" class="st0" width="72" height="18"/>
<rect x="576" y="576" class="st0" width="72" height="54"/>
<rect x="504" y="504" class="st0" width="72" height="18"/>
<rect x="576" y="1152" class="st0" width="72" height="18"/>
<rect x="504" y="1224" class="st0" width="72" height="54"/>
<rect x="1152" y="1188" class="st0" width="72" height="36"/>
<rect x="1224" y="1224" class="st0" width="72" height="54"/>
<rect x="216" y="864" class="st0" width="216" height="72"/>
<rect x="1368" y="864" class="st0" width="216" height="72"/>
<rect x="648" y="612" class="st0" width="36" height="18"/>
<rect x="612" y="648" class="st0" width="36" height="36"/>
<rect x="540" y="576" class="st0" width="36" height="36"/>
<rect x="576" y="540" class="st0" width="36" height="36"/>
<rect x="1152" y="648" class="st0" width="36" height="36"/>
<rect x="1116" y="612" class="st0" width="36" height="18"/>
<rect x="1224" y="576" class="st0" width="36" height="36"/>
<rect x="1188" y="540" class="st0" width="36" height="36"/>
<rect x="1152" y="1116" class="st0" width="36" height="36"/>
<rect x="1116" y="1152" class="st0" width="36" height="18"/>
<rect x="1188" y="1224" class="st0" width="36" height="36"/>
<rect x="1224" y="1188" class="st0" width="36" height="36"/>
<rect x="576" y="1224" class="st0" width="36" height="36"/>
<rect x="540" y="1188" class="st0" width="36" height="36"/>
<rect x="648" y="1152" class="st0" width="36" height="18"/>
<rect x="612" y="1116" class="st0" width="36" height="36"/>
<rect x="1260" y="468" class="st0" width="72" height="54"/>
<rect x="1296" y="432" class="st0" width="72" height="72"/>
<rect x="468" y="468" class="st0" width="72" height="54"/>
<rect x="432" y="432" class="st0" width="72" height="72"/>
<rect x="468" y="1260" class="st0" width="72" height="18"/>
<rect x="432" y="1296" class="st0" width="72" height="72"/>
<rect x="1260" y="1260" class="st0" width="72" height="18"/>
<rect x="1296" y="1296" class="st0" width="72" height="72"/>
<rect x="864" y="360" class="st0" width="72" height="54"/>
<rect x="864" y="216" class="st0" width="72" height="90"/>
<rect x="864" y="1404" class="st0" width="72" height="36"/>
<rect x="864" y="1440" class="st0" width="72" height="54"/>
<rect x="864" y="1512" class="st0" width="72" height="90"/>
<rect x="864" y="324" class="st0" width="72" height="36"/>
<rect x="432" y="864" class="st0" width="144" height="90"/>
<rect x="1224" y="864" class="st0" width="144" height="90"/>
<rect x="720" y="1188" class="st0" width="360" height="36"/>
<rect x="576" y="1188" class="st0" width="72" height="36"/>
<rect x="1152" y="1152" class="st0" width="72" height="18"/>
<rect x="864" y="1368" class="st0" width="72" height="18"/>
<rect x="1260" y="1296" class="st0" width="72" height="36"/>
<rect x="468" y="1296" class="st0" width="72" height="36"/>
<rect x="1224" y="540" class="st0" width="72" height="36"/>
<rect x="504" y="540" class="st0" width="72" height="36"/>
</svg>
