<svg xmlns="http://www.w3.org/2000/svg" id="Слой_1" x="0" y="0" version="1.1" viewBox="0 0 1800 1800" xml:space="preserve"><style>.st0{fill:#0f0}</style><path d="M720 576h360v72H720zM648 648h504v72H648zM576 720h648v72H576zM576 792h648v72H576zM576 864h648v72H576zM576 936h648v72H576zM576 1008h648v72H576zM648 1080h504v72H648zM720 1152h360v72H720zM828 360h144v72H828zM828 432h144v72H828zM828 504h144v72H828zM828 1224h144v72H828zM828 1296h144v72H828zM828 1368h144v72H828zM360 828h216v144H360zM1224 828h216v144h-216zM1152 576h72v72h-72zM1224 504h72v72h-72zM576 576h72v72h-72zM504 504h72v72h-72zM576 1152h72v72h-72zM504 1224h72v72h-72zM1152 1152h72v72h-72zM1224 1224h72v72h-72zM864 99h72v261h-72zM864 1440h72v252h-72zM108 864h252v72H108zM1440 864h252v72h-252zM648 612h36v36h-36zM612 648h36v36h-36zM540 576h36v36h-36zM576 540h36v36h-36zM1152 648h36v36h-36zM1116 612h36v36h-36zM1224 576h36v36h-36zM1188 540h36v36h-36zM1152 1116h36v36h-36zM1116 1152h36v36h-36zM1188 1224h36v36h-36zM1224 1188h36v36h-36zM576 1224h36v36h-36zM540 1188h36v36h-36zM648 1152h36v36h-36zM612 1116h36v36h-36z" class="st0"/></svg>