<svg xmlns="http://www.w3.org/2000/svg" id="Слой_1" x="0" y="0" version="1.1" viewBox="0 0 1800 1800" xml:space="preserve"><style>.st0{fill:#0f0}.st1{fill:#174214}</style><path d="M720 576h360v54H720zM648 648h504v90H648zM576 756h648v36H576zM576 792h648v54H576zM576 864h648v90H576zM576 972h648v36H576zM576 1008h648v54H576zM648 1080h504v72H648zM720 1152h360v18H720z" class="st0"/><path d="M828 432h144v90H828zM828 540h144v36H828zM828 1224h144v54H828zM828 1296h144v72H828zM432 828h144v18H432zM1224 828h144v18h-144zM1152 576h72v54h-72zM1224 504h72v18h-72zM576 576h72v54h-72zM504 504h72v18h-72zM576 1152h72v18h-72zM504 1224h72v54h-72zM1152 1188h72v36h-72zM1224 1224h72v54h-72zM216 864h216v72H216zM1368 864h216v72h-216zM648 612h36v18h-36zM612 648h36v36h-36zM540 576h36v36h-36zM576 540h36v36h-36zM1152 648h36v36h-36zM1116 612h36v18h-36zM1224 576h36v36h-36zM1188 540h36v36h-36zM1152 1116h36v36h-36zM1116 1152h36v18h-36zM1188 1224h36v36h-36zM1224 1188h36v36h-36zM576 1224h36v36h-36zM540 1188h36v36h-36zM648 1152h36v18h-36zM612 1116h36v36h-36z" class="st1"/><path d="M1260 468h72v54h-72z" class="st1"/><path d="M1296 432h72v72h-72zM468 468h72v54h-72z" class="st1"/><path d="M432 432h72v72h-72zM468 1260h72v18h-72zM432 1296h72v72h-72zM1260 1260h72v18h-72zM1296 1296h72v72h-72zM864 360h72v54h-72zM864 216h72v90h-72zM864 1404h72v36h-72zM864 1440h72v54h-72zM864 1512h72v90h-72zM864 324h72v36h-72zM432 864h144v90H432zM1224 864h144v90h-144zM720 1188h360v36H720zM576 1188h72v36h-72zM1152 1152h72v18h-72zM864 1368h72v18h-72z" class="st1"/><path d="M1260 1296h72v36h-72zM468 1296h72v36h-72zM1224 540h72v36h-72zM504 540h72v36h-72z" class="st1"/></svg>