<svg xmlns="http://www.w3.org/2000/svg" id="Слой_1" x="0" y="0" version="1.1" viewBox="0 0 1800 1800" xml:space="preserve"><style>.st0{fill:#0f0}</style><path d="M720 576h360v72H720zM648 648h504v72H648zM576 720h648v72H576zM576 792h648v72H576zM576 864h648v72H576zM576 936h648v72H576zM576 1008h648v72H576zM648 1080h504v72H648zM720 1152h360v72H720zM864 360h72v72h-72zM864 432h72v72h-72zM864 504h72v72h-72zM864 1224h72v72h-72zM864 1296h72v72h-72zM864 1368h72v72h-72zM360 864h216v72H360zM1224 864h216v72h-216zM1152 576h72v72h-72zM1224 504h72v72h-72zM576 576h72v72h-72zM504 504h72v72h-72zM576 1152h72v72h-72zM504 1224h72v72h-72zM1152 1152h72v72h-72zM1224 1224h72v72h-72zM882 144h36v216h-36zM882 1440h36v216h-36zM144 882h216v36H144zM1440 882h216v36h-216zM648 612h36v36h-36zM612 648h36v36h-36zM540 576h36v36h-36zM576 540h36v36h-36zM1152 648h36v36h-36zM1116 612h36v36h-36zM1224 576h36v36h-36zM1188 540h36v36h-36zM1152 1116h36v36h-36zM1116 1152h36v36h-36zM1188 1224h36v36h-36zM1224 1188h36v36h-36zM576 1224h36v36h-36zM540 1188h36v36h-36zM648 1152h36v36h-36zM612 1116h36v36h-36z" class="st0"/><path d="M486 486h36v36h-36z" class="st0"/><path d="M468 468h36v36h-36z" class="st0"/><path d="M450 450h36v36h-36z" class="st0"/><path d="M432 432h36v36h-36z" class="st0"/><path d="M414 414h36v36h-36z" class="st0"/><path d="M396 396h36v36h-36zM1368 1368h36v36h-36z" class="st0"/><path d="M1350 1350h36v36h-36z" class="st0"/><path d="M1332 1332h36v36h-36z" class="st0"/><path d="M1314 1314h36v36h-36z" class="st0"/><path d="M1296 1296h36v36h-36z" class="st0"/><path d="M1278 1278h36v36h-36z" class="st0"/><path d="M396 1368h36v36h-36z" class="st0" transform="rotate(-180 414 1386)"/><path d="M414 1350h36v36h-36z" class="st0" transform="rotate(-180 432 1368)"/><path d="M432 1332h36v36h-36z" class="st0" transform="rotate(-180 450 1350)"/><path d="M450 1314h36v36h-36z" class="st0" transform="rotate(-180 468 1332)"/><path d="M468 1296h36v36h-36z" class="st0" transform="rotate(-180 486 1314)"/><path d="M486 1278h36v36h-36z" class="st0" transform="rotate(-180 504 1296)"/><path d="M1278 486h36v36h-36z" class="st0" transform="rotate(-180 1296 504)"/><path d="M1296 468h36v36h-36z" class="st0" transform="rotate(-180 1314 486)"/><path d="M1314 450h36v36h-36z" class="st0" transform="rotate(-180 1332 468)"/><path d="M1332 432h36v36h-36z" class="st0" transform="rotate(-180 1350 450)"/><path d="M1350 414h36v36h-36z" class="st0" transform="rotate(-180 1368 432)"/><path d="M1368 396h36v36h-36z" class="st0" transform="rotate(-180 1386 414)"/></svg>