<svg xmlns="http://www.w3.org/2000/svg" viewBox="0 0 1024 1024">
<path fill="none" d="M0 0h1024v1024H0z"/>
<path fill="#0f0" stroke="#000" d="M278.33 468.33h467v68h-467z"/>
<path transform="matrix(.80288 0 0 1 106.077 -11)" fill="#0f0" stroke="#000" d="M276.857 582.33h467v68h-467zM264.486 372.625h467v68h-467z"/>
<path transform="matrix(.48778 0 0 1 193.76 -11)" fill="#0f0" stroke="#000" d="M385.032 270.919h467v68h-467zM433.963 689.048h467v68h-467zM-343.303 480.177h467v68h-467zM1183.762 478.306h467v68h-467z"/>
<path transform="matrix(.00528 .48775 -.99994 .01082 1430.21 488.975)" fill="#0f0" stroke="#000" d="M561.239 874.519h467v68h-467z"/>
<path transform="matrix(-.34886 .33597 -.68878 -.7152 1083.74 941.098)" fill="#0f0" stroke="#000" d="M-786.619 643.567h467v68h-467z"/>
<path transform="matrix(.00528 .48775 -.99994 .01082 1430.21 488.975)" fill="#0f0" stroke="#000" d="M-1007.393 899.591h467v68h-467z"/>
<path transform="matrix(-.34886 .33597 -.68878 -.7152 1083.74 941.098)" fill="#0f0" stroke="#000" d="M763.656 718.07h467v68h-467z"/>
<path transform="matrix(-.33159 -.35302 .72374 -.6798 -575.729 1150.22)" fill="#0f0" stroke="#000" d="M8.775 1147.069h467v68h-467zM-1589.689 1273.257h467v68h-467z"/>
</svg>