<svg xmlns="http://www.w3.org/2000/svg" id="Слой_1" x="0" y="0" version="1.1" viewBox="0 0 1800 1800" xml:space="preserve"><style>.st0{fill:#0f0}.st1{fill:#197f0a}</style><path d="M720 576h360v54H720zM648 648h504v90H648zM576 756h648v36H576zM576 792h648v54H576zM576 864h648v72H576z" class="st0"/><path d="M828 432h144v90H828zM828 540h144v36H828zM432 828h144v18H432zM1224 828h144v18h-144zM1152 576h72v54h-72zM1224 504h72v18h-72zM576 576h72v54h-72zM504 504h72v18h-72zM216 864h216v72H216zM1368 864h216v72h-216zM648 612h36v18h-36zM612 648h36v36h-36zM540 576h36v36h-36zM576 540h36v36h-36zM1152 648h36v36h-36zM1116 612h36v18h-36zM1224 576h36v36h-36zM1188 540h36v36h-36z" class="st1"/><path d="M1260 468h72v54h-72z" class="st1"/><path d="M1296 432h72v72h-72zM468 468h72v54h-72z" class="st1"/><path d="M432 432h72v72h-72zM864 360h72v54h-72zM864 216h72v90h-72zM864 324h72v36h-72zM432 864h144v72H432zM1224 864h144v72h-144zM1224 540h72v36h-72zM504 540h72v36h-72z" class="st1"/><path d="M720 1170h360v54H720z" class="st0" transform="rotate(-180 900 1197)"/><path d="M648 1062h504v90H648z" class="st0" transform="rotate(-180 900 1107)"/><path d="M576 1008h648v36H576z" class="st0" transform="rotate(-180 900 1026)"/><path d="M576 954h648v54H576z" class="st0" transform="rotate(-180 900 981)"/><path d="M828 1278h144v90H828z" class="st1" transform="rotate(-180 900 1323)"/><path d="M828 1224h144v36H828z" class="st1" transform="rotate(-180 900 1242)"/><path d="M1224 954h144v18h-144z" class="st1" transform="rotate(-180 1296 963)"/><path d="M432 954h144v18H432z" class="st1" transform="rotate(-180 504 963)"/><path d="M576 1170h72v54h-72z" class="st1" transform="rotate(-180 612 1197)"/><path d="M504 1278h72v18h-72z" class="st1" transform="rotate(-180 540 1287)"/><path d="M1152 1170h72v54h-72z" class="st1" transform="rotate(-180 1188 1197)"/><path d="M1224 1278h72v18h-72z" class="st1" transform="rotate(-180 1260 1287)"/><path d="M1116 1170h36v18h-36z" class="st1" transform="rotate(-180 1134 1179)"/><path d="M1152 1116h36v36h-36z" class="st1" transform="rotate(-180 1170 1134)"/><path d="M1224 1188h36v36h-36z" class="st1" transform="rotate(-180 1242 1206)"/><path d="M1188 1224h36v36h-36z" class="st1" transform="rotate(-180 1206 1242)"/><path d="M612 1116h36v36h-36z" class="st1" transform="rotate(-180 630 1134)"/><path d="M648 1170h36v18h-36z" class="st1" transform="rotate(-180 666 1179)"/><path d="M540 1188h36v36h-36z" class="st1" transform="rotate(-180 558 1206)"/><path d="M576 1224h36v36h-36z" class="st1" transform="rotate(-180 594 1242)"/><path d="M468 1278h72v54h-72z" class="st1" transform="rotate(-180 504 1305)"/><path d="M432 1296h72v72h-72z" class="st1" transform="rotate(-180 468 1332)"/><path d="M1260 1278h72v54h-72z" class="st1" transform="rotate(-180 1296 1305)"/><path d="M1296 1296h72v72h-72z" class="st1" transform="rotate(-180 1332 1332)"/><path d="M864 1386h72v54h-72z" class="st1" transform="rotate(-180 900 1413)"/><path d="M864 1494h72v90h-72z" class="st1" transform="rotate(-180 900 1539)"/><path d="M864 1440h72v36h-72z" class="st1" transform="rotate(-180 900 1458)"/><path d="M504 1224h72v36h-72z" class="st1" transform="rotate(-180 540 1242)"/><path d="M1224 1224h72v36h-72z" class="st1" transform="rotate(-180 1260 1242)"/><path d="M1575.6 1050.2c1.9 0 1.9-3 0-3s-1.9 3 0 3z" class="st1"/></svg>